<?xml version="1.0" encoding="UTF-8"?>
<svg id="Layer_2" data-name="Layer 2" xmlns="http://www.w3.org/2000/svg" xmlns:xlink="http://www.w3.org/1999/xlink" viewBox="0 0 19.12 19.02">
  <defs>
    <style>
      .cls-1 {
        fill: url(#linear-gradient-8);
      }

      .cls-2 {
        fill: url(#linear-gradient-7);
      }

      .cls-3 {
        fill: url(#linear-gradient-5);
      }

      .cls-4 {
        fill: url(#linear-gradient-6);
      }

      .cls-5 {
        fill: url(#linear-gradient-9);
      }

      .cls-6 {
        fill: url(#linear-gradient-4);
      }

      .cls-7 {
        fill: url(#linear-gradient-3);
      }

      .cls-8 {
        fill: url(#linear-gradient-2);
      }

      .cls-9 {
        fill: url(#radial-gradient);
      }

      .cls-10 {
        fill: url(#linear-gradient);
      }

      .cls-11 {
        fill: url(#linear-gradient-10);
      }

      .cls-12 {
        fill: url(#linear-gradient-11);
      }

      .cls-13 {
        fill: url(#linear-gradient-12);
      }

      .cls-14 {
        fill: url(#linear-gradient-13);
      }

      .cls-15 {
        fill: #383838;
      }
    </style>
    <linearGradient id="linear-gradient" x1="9.56" y1="2.74" x2="9.56" y2="8.04" gradientUnits="userSpaceOnUse">
      <stop offset="0" stop-color="#f7d54d"/>
      <stop offset="1" stop-color="#ad7736"/>
    </linearGradient>
    <linearGradient id="linear-gradient-2" x1="13.22" y1="3.06" x2="10.15" y2="8.01" xlink:href="#linear-gradient"/>
    <linearGradient id="linear-gradient-3" x1="16.95" y1="5.13" x2="10.69" y2="8.33" xlink:href="#linear-gradient"/>
    <linearGradient id="linear-gradient-4" x1="18.25" y1="8.83" x2="10.83" y2="9.23" xlink:href="#linear-gradient"/>
    <linearGradient id="linear-gradient-5" x1="17.68" y1="12.92" x2="10.34" y2="9.7" xlink:href="#linear-gradient"/>
    <linearGradient id="linear-gradient-6" x1="14.98" y1="16.07" x2="10.98" y2="10.99" xlink:href="#linear-gradient"/>
    <linearGradient id="linear-gradient-7" x1="11.24" y1="16.63" x2="10.11" y2="11.78" xlink:href="#linear-gradient"/>
    <linearGradient id="linear-gradient-8" x1="7.44" y1="16.9" x2="9.31" y2="11.73" xlink:href="#linear-gradient"/>
    <linearGradient id="linear-gradient-9" x1="3.75" y1="15.47" x2="9.32" y2="10.6" xlink:href="#linear-gradient"/>
    <linearGradient id="linear-gradient-10" x1="2.51" y1="11.92" x2="8.36" y2="10.48" xlink:href="#linear-gradient"/>
    <linearGradient id="linear-gradient-11" x1="1.85" y1="8.5" x2="9.22" y2="9.76" xlink:href="#linear-gradient"/>
    <linearGradient id="linear-gradient-12" x1="3.3" y1="5.13" x2="8.18" y2="8.75" xlink:href="#linear-gradient"/>
    <linearGradient id="linear-gradient-13" x1="5.98" y1="3.08" x2="8.7" y2="7.54" xlink:href="#linear-gradient"/>
    <radialGradient id="radial-gradient" cx="9.34" cy="8.31" fx="9.34" fy="8.31" r="3.61" gradientUnits="userSpaceOnUse">
      <stop offset="0" stop-color="#3d3120"/>
      <stop offset="1" stop-color="#1f1810"/>
    </radialGradient>
  </defs>
  <g id="Layer_1-2" data-name="Layer 1">
    <path class="cls-15" d="M11.17,19.02c-.6,0-1.15-.17-1.65-.49-.46.31-.99.49-1.59.49-.22,0-.45-.03-.67-.08-.77-.19-1.43-.69-1.84-1.39l-.04-.06c-.1.01-.21.02-.31.02-.71,0-1.38-.25-1.89-.71-.59-.53-.94-1.27-.98-2.09,0-.02,0-.05,0-.07-1.09-.44-1.5-1.31-1.62-1.63-.28-.75-.24-1.56.1-2.3,0-.02.02-.04.03-.06-.03-.03-.06-.07-.08-.1-.48-.61-.69-1.36-.6-2.1.09-.73.47-1.49,1.22-2.03-.01-.05-.02-.09-.03-.14-.14-.77.02-1.52.45-2.14.47-.68,1.19-1.11,2.02-1.24.01-.04.02-.08.04-.13.23-.74.73-1.34,1.4-1.68.42-.22.87-.33,1.35-.33.35,0,.67.06.98.16.02-.02.04-.04.06-.06.55-.55,1.26-.86,2.01-.86.8,0,1.55.32,2.12.9.02.02.03.04.05.05.32-.11.65-.18,1.01-.18.45,0,.89.11,1.29.32.71.37,1.22,1,1.46,1.78,0,.02.01.05.02.07.82.12,1.52.54,1.97,1.19.45.66.62,1.46.46,2.26v.07c.92.67,1.13,1.59,1.18,1.98.09.79-.13,1.58-.64,2.22-.02.02-.03.04-.04.06.02.04.04.08.06.12.32.71.35,1.48.08,2.18-.3.78-.89,1.37-1.66,1.69,0,.04,0,.09,0,.13-.05.78-.38,1.48-.94,1.97-.55.48-1.23.74-1.97.74-.1,0-.19,0-.29-.01-.02.04-.04.08-.07.11-.4.67-1.03,1.13-1.75,1.31-.23.06-.46.08-.7.08Z"/>
    <g>
      <g>
        <path class="cls-10" d="M9.52,7.48c-.56-.01-1.07-1.42-1.07-2.6,0-1.2.36-2.65,1.07-2.65.85,0,1.16,1.42,1.15,2.67-.01,1.2-.59,2.59-1.15,2.58Z"/>
        <path class="cls-8" d="M10.52,7.71c-.49-.27-.28-1.76.26-2.8.55-1.07,1.55-2.18,2.18-1.84.75.4.37,1.79-.22,2.9-.57,1.06-1.73,2.02-2.22,1.75Z"/>
        <path class="cls-7" d="M11.29,8.37c-.31-.47.57-1.69,1.53-2.36.99-.69,2.39-1.2,2.79-.62.48.7-.51,1.76-1.55,2.46-1,.67-2.47.98-2.78.52Z"/>
        <path class="cls-6" d="M11.67,9.32c-.06-.56,1.29-1.23,2.45-1.38,1.19-.15,2.67.04,2.76.75.1.84-1.27,1.32-2.51,1.46-1.2.13-2.64-.28-2.7-.83Z"/>
        <path class="cls-3" d="M11.56,10.33c.21-.52,1.71-.49,2.81-.08,1.13.42,2.35,1.28,2.09,1.95-.3.79-1.74.58-2.9.12-1.12-.44-2.21-1.47-2-1.99Z"/>
        <path class="cls-4" d="M10.99,11.18c.43-.36,1.74.36,2.52,1.24.8.9,1.48,2.23.94,2.7-.64.56-1.81-.3-2.63-1.24-.79-.91-1.27-2.33-.84-2.69Z"/>
        <path class="cls-2" d="M10.1,11.67c.55-.12,1.38,1.13,1.66,2.27.29,1.17.27,2.66-.42,2.83-.83.2-1.46-1.1-1.75-2.32-.27-1.17-.04-2.66.51-2.78Z"/>
        <path class="cls-1" d="M9.08,11.68c.54.15.69,1.64.41,2.78-.29,1.17-.99,2.48-1.69,2.31-.82-.21-.78-1.66-.47-2.87.3-1.16,1.2-2.37,1.74-2.22Z"/>
        <path class="cls-5" d="M8.17,11.22c.41.38-.15,1.77-.93,2.65-.8.9-2.03,1.73-2.57,1.26-.63-.57.08-1.83.92-2.76.81-.89,2.16-1.54,2.58-1.16Z"/>
        <path class="cls-11" d="M7.58,10.39c.19.53-.96,1.5-2.06,1.92-1.12.43-2.61.59-2.86-.08-.3-.8.92-1.58,2.1-2.01,1.13-.41,2.63-.36,2.82.17Z"/>
        <path class="cls-12" d="M7.45,9.38c-.08.56-1.55.88-2.71.74-1.19-.15-2.58-.69-2.49-1.4.11-.84,1.55-.97,2.79-.8,1.19.16,2.5.91,2.41,1.47Z"/>
        <path class="cls-13" d="M7.8,8.42c-.33.45-1.78.06-2.75-.61-.99-.68-1.96-1.81-1.55-2.4.49-.7,1.83-.14,2.85.59.98.7,1.79,1.97,1.45,2.42Z"/>
        <path class="cls-14" d="M8.55,7.74c-.5.25-1.6-.78-2.15-1.82-.56-1.07-.89-2.52-.26-2.85.76-.39,1.68.73,2.25,1.84.54,1.08.67,2.57.16,2.82Z"/>
      </g>
      <circle class="cls-9" cx="9.56" cy="9.62" r="2.86"/>
    </g>
  </g>
</svg>