<?xml version="1.0" encoding="UTF-8"?>
<svg id="Layer_2" data-name="Layer 2" xmlns="http://www.w3.org/2000/svg" xmlns:xlink="http://www.w3.org/1999/xlink" viewBox="0 0 16.37 16.38">
  <defs>
    <style>
      .cls-1 {
        fill: url(#linear-gradient-2);
      }

      .cls-2 {
        fill: url(#linear-gradient);
      }

      .cls-3 {
        fill: #383838;
      }
    </style>
    <linearGradient id="linear-gradient" x1="-1117.22" y1="-1557.59" x2="-1108.26" y2="-1548.62" gradientTransform="translate(-1882.18 -303.2) rotate(135)" gradientUnits="userSpaceOnUse">
      <stop offset="0" stop-color="#e8e8e8"/>
      <stop offset="1" stop-color="#797d8c"/>
    </linearGradient>
    <linearGradient id="linear-gradient-2" x1="-1115.45" y1="-1561.63" x2="-1111.33" y2="-1540.66" xlink:href="#linear-gradient"/>
  </defs>
  <g id="Layer_1-2" data-name="Layer 1">
    <g>
      <path class="cls-3" d="M8.18,16.38c-1.9,0-3.76-.67-5.22-1.89C-.52,11.61-1,6.44,1.88,2.96,3.44,1.08,5.74,0,8.19,0c1.9,0,3.76.67,5.23,1.89,3.48,2.88,3.96,8.06,1.08,11.53-1.56,1.88-3.86,2.96-6.31,2.96h0Z"/>
      <g>
        <path class="cls-2" d="M2.89,8.71c-.17-1.82.56-3.52,1.83-4.65.85-.76,1.94-1.26,3.17-1.38.97-.09,1.9.08,2.73.44h-.09c-2.67.26-4.62,2.62-4.37,5.29.25,2.66,2.61,4.62,5.27,4.37h.09c-.75.5-1.64.83-2.6.92-.81.08-1.6-.03-2.33-.28-1.98-.69-3.49-2.49-3.7-4.71Z"/>
        <path class="cls-1" d="M2.89,8.71c-.17-1.82.56-3.52,1.83-4.65-.41,1.18-.67,2.68-.43,4.39.31,2.21,1.34,3.86,2.3,4.97-1.98-.69-3.49-2.49-3.7-4.71Z"/>
      </g>
    </g>
  </g>
</svg>