<?xml version="1.0" encoding="UTF-8"?>
<svg id="Layer_2" data-name="Layer 2" xmlns="http://www.w3.org/2000/svg" xmlns:xlink="http://www.w3.org/1999/xlink" viewBox="0 0 20.84 20.84">
  <defs>
    <style>
      .cls-1 {
        fill: url(#radial-gradient-7);
      }

      .cls-2 {
        fill: url(#radial-gradient-6);
      }

      .cls-3 {
        fill: url(#radial-gradient-5);
      }

      .cls-4 {
        fill: url(#radial-gradient-4);
      }

      .cls-5 {
        fill: url(#radial-gradient-9);
      }

      .cls-6 {
        fill: url(#radial-gradient-8);
      }

      .cls-7 {
        fill: url(#radial-gradient-3);
      }

      .cls-8 {
        fill: url(#radial-gradient-2);
      }

      .cls-9 {
        fill: url(#radial-gradient);
      }

      .cls-10 {
        fill: url(#radial-gradient-13);
        opacity: .5;
      }

      .cls-11 {
        fill: url(#radial-gradient-12);
      }

      .cls-12 {
        fill: url(#radial-gradient-14);
      }

      .cls-13 {
        fill: url(#radial-gradient-10);
      }

      .cls-14 {
        fill: url(#radial-gradient-11);
      }

      .cls-15 {
        fill: url(#radial-gradient-15);
      }

      .cls-16 {
        fill: #383838;
      }
    </style>
    <radialGradient id="radial-gradient" cx="10.43" cy="10.04" fx="10.43" fy="10.04" r="8.1" gradientUnits="userSpaceOnUse">
      <stop offset="0" stop-color="#ffda85"/>
      <stop offset="1" stop-color="#d1994f"/>
    </radialGradient>
    <radialGradient id="radial-gradient-2" cx="10.43" cy="10.04" fx="10.43" fy="10.04" r="8.1" xlink:href="#radial-gradient"/>
    <radialGradient id="radial-gradient-3" cx="10.43" cy="10.04" fx="10.43" fy="10.04" r="8.1" xlink:href="#radial-gradient"/>
    <radialGradient id="radial-gradient-4" r="8.1" xlink:href="#radial-gradient"/>
    <radialGradient id="radial-gradient-5" cx="10.43" cy="10.04" fx="10.43" fy="10.04" r="8.1" xlink:href="#radial-gradient"/>
    <radialGradient id="radial-gradient-6" cx="10.43" cy="10.04" fx="10.43" fy="10.04" r="8.1" xlink:href="#radial-gradient"/>
    <radialGradient id="radial-gradient-7" cx="10.43" fx="10.43" r="8.1" xlink:href="#radial-gradient"/>
    <radialGradient id="radial-gradient-8" cx="10.43" cy="10.04" fx="10.43" fy="10.04" r="8.1" xlink:href="#radial-gradient"/>
    <radialGradient id="radial-gradient-9" cx="10.43" cy="10.04" fx="10.43" fy="10.04" r="8.1" xlink:href="#radial-gradient"/>
    <radialGradient id="radial-gradient-10" cx="10.43" fx="10.43" r="8.1" xlink:href="#radial-gradient"/>
    <radialGradient id="radial-gradient-11" cx="10.43" fx="10.43" r="8.1" xlink:href="#radial-gradient"/>
    <radialGradient id="radial-gradient-12" cx="10.43" cy="10.04" fx="10.43" fy="10.04" r="8.1" xlink:href="#radial-gradient"/>
    <radialGradient id="radial-gradient-13" cx="10.33" cy="10.2" fx="10.33" fy="10.2" r="5.28" gradientUnits="userSpaceOnUse">
      <stop offset="0" stop-color="#ffda85" stop-opacity="0"/>
      <stop offset="1" stop-color="#d1994f"/>
    </radialGradient>
    <radialGradient id="radial-gradient-14" cx="14.82" cy="8.08" fx="14.82" fy="8.08" r="8.62" xlink:href="#radial-gradient"/>
    <radialGradient id="radial-gradient-15" cx="12.2" cy="7.7" fx="12.2" fy="7.7" r="6.43" xlink:href="#radial-gradient"/>
  </defs>
  <g id="Layer_1-2" data-name="Layer 1">
    <path class="cls-16" d="M19.93,8.11c-.36-.27-.74-.46-1.12-.62.5-.48.76-1.18.67-1.9-.14-1.02-.96-1.81-1.98-1.92-.22-.02-.42-.03-.6-.03-.23,0-.46.02-.68.05.19-.67.08-1.4-.37-1.97-.43-.56-1.09-.87-1.77-.87-.3,0-.61.06-.9.19-.41.18-.77.41-1.09.66-.17-.68-.64-1.26-1.32-1.53-.28-.11-.56-.17-.85-.17-.7,0-1.38.33-1.81.92-.27.37-.46.75-.62,1.13-.42-.43-.98-.7-1.6-.7-.1,0-.2,0-.3.02-1.02.14-1.81.96-1.92,1.98-.05.45-.03.88.03,1.28-.2-.06-.41-.1-.62-.1-.48,0-.96.16-1.37.47-.81.63-1.09,1.73-.68,2.67.18.42.41.77.67,1.1-.68.17-1.26.63-1.54,1.31-.39.95-.08,2.05.75,2.66.36.27.74.46,1.12.62-.5.48-.76,1.18-.67,1.9.14,1.02.95,1.82,1.98,1.93.22.02.42.03.6.03.23,0,.46-.02.68-.05-.19.67-.08,1.4.37,1.97.43.56,1.09.87,1.77.87.3,0,.61-.06.9-.19.41-.18.77-.41,1.09-.66.17.68.64,1.25,1.32,1.53.28.11.56.17.85.17.7,0,1.38-.33,1.81-.92.27-.37.47-.75.62-1.13.42.43.98.7,1.6.7.1,0,.2,0,.3-.02,1.02-.14,1.82-.95,1.92-1.98.05-.45.03-.88-.03-1.29.2.06.41.1.62.1.48,0,.96-.16,1.37-.47.81-.63,1.09-1.73.68-2.67-.19-.42-.41-.77-.67-1.1.68-.17,1.26-.63,1.54-1.31.39-.95.08-2.05-.75-2.65Z"/>
    <g>
      <g>
        <path class="cls-9" d="M11.13,8.18c.17-.21.44-.49.85-.65.55-.21.83.07,1.63-.04.22-.03.72-.11,1.22-.44.5-.33.5-.59.9-.85.29-.19.76-.38,1.53-.3-.48.19-.75.44-.91.64-.17.21-.18.3-.52.94-.27.5-.4.75-.53.89-.38.42-.74.41-1.21.66-.38.2-.86.59-1.25,1.41-.57-.75-1.13-1.51-1.7-2.26Z"/>
        <path class="cls-8" d="M12.16,8.83c.25-.1.63-.21,1.06-.14.58.09.68.48,1.43.78.2.08.68.26,1.27.23.59-.04.73-.25,1.21-.29.35-.02.84.05,1.47.51-.51-.08-.87,0-1.11.09-.25.09-.3.17-.92.56-.48.3-.73.45-.9.51-.54.17-.85-.02-1.38-.03-.43-.01-1.04.09-1.79.59-.11-.94-.23-1.87-.34-2.81Z"/>
        <path class="cls-7" d="M12.72,9.91c.27.04.65.14.98.41.46.37.35.76.85,1.39.14.17.46.57.99.83.53.27.76.14,1.19.35.31.15.71.46,1.02,1.18-.4-.32-.76-.43-1.01-.47-.26-.04-.35,0-1.08.02-.57.02-.85.03-1.04-.01-.55-.12-.72-.44-1.18-.72-.37-.23-.94-.44-1.85-.38.37-.87.74-1.74,1.11-2.6Z"/>
        <path class="cls-4" d="M12.67,11.13c.21.17.49.44.65.85.21.55-.07.83.04,1.63.03.22.11.72.44,1.22.33.5.59.5.85.9.19.29.38.76.3,1.53-.19-.48-.44-.75-.64-.91-.21-.17-.3-.18-.94-.52-.5-.27-.75-.4-.89-.53-.42-.38-.41-.74-.66-1.21-.2-.38-.59-.86-1.41-1.25l2.26-1.7Z"/>
        <path class="cls-3" d="M12.01,12.16c.1.25.21.63.14,1.06-.09.58-.48.68-.78,1.43-.08.2-.26.68-.23,1.27.04.59.25.73.29,1.21.02.35-.05.84-.51,1.47.08-.51,0-.87-.09-1.11-.09-.25-.17-.3-.56-.92-.3-.48-.45-.73-.51-.9-.17-.54.02-.85.03-1.38.01-.43-.09-1.04-.59-1.79l2.81-.34Z"/>
        <path class="cls-2" d="M10.93,12.72c-.04.27-.14.65-.41.98-.37.46-.76.35-1.39.85-.17.14-.57.46-.83.99-.27.53-.14.76-.35,1.19-.15.31-.46.71-1.18,1.02.32-.4.43-.76.47-1.01.04-.26,0-.35-.02-1.08-.02-.57-.03-.85.01-1.04.12-.55.44-.72.72-1.18.23-.37.44-.94.38-1.85l2.6,1.11Z"/>
        <path class="cls-1" d="M9.71,12.67c-.17.21-.44.49-.85.65-.55.21-.83-.07-1.63.04-.22.03-.72.11-1.22.44-.5.33-.5.59-.9.85-.29.19-.76.38-1.53.3.48-.19.75-.44.91-.64.17-.21.18-.3.52-.94.27-.5.4-.75.53-.89.38-.42.74-.41,1.21-.66.38-.2.86-.59,1.25-1.41l1.7,2.26Z"/>
        <path class="cls-6" d="M8.68,12.01c-.25.1-.63.21-1.06.14-.58-.09-.68-.48-1.43-.78-.2-.08-.68-.26-1.27-.23-.59.04-.73.25-1.21.29-.35.02-.84-.05-1.47-.51.51.08.87,0,1.11-.09.25-.09.3-.17.92-.56.48-.3.73-.45.9-.51.54-.17.85.02,1.38.03.43.01,1.04-.09,1.79-.59.11.94.23,1.87.34,2.81Z"/>
        <path class="cls-5" d="M8.12,10.93c-.27-.04-.65-.14-.98-.41-.46-.37-.35-.76-.85-1.39-.14-.17-.46-.57-.99-.83-.53-.27-.76-.14-1.19-.35-.31-.15-.71-.46-1.02-1.18.4.32.76.43,1.01.47.26.04.35,0,1.08-.02.57-.02.85-.03,1.04.01.55.12.72.44,1.18.72.37.23.94.44,1.85.38-.37.87-.74,1.74-1.11,2.6Z"/>
        <path class="cls-13" d="M8.18,9.71c-.21-.17-.49-.44-.65-.85-.21-.55.07-.83-.04-1.63-.03-.22-.11-.72-.44-1.22-.33-.5-.59-.5-.85-.9-.19-.29-.38-.76-.3-1.53.19.48.44.75.64.91.21.17.3.18.94.52.5.27.75.4.89.53.42.38.41.74.66,1.21.2.38.59.86,1.41,1.25l-2.26,1.7Z"/>
        <path class="cls-14" d="M8.83,8.68c-.1-.25-.21-.63-.14-1.06.09-.58.48-.68.78-1.43.08-.2.26-.68.23-1.27-.04-.59-.25-.73-.29-1.21-.02-.35.05-.84.51-1.47-.08.51,0,.87.09,1.11.09.25.17.3.56.92.3.48.45.73.51.9.17.54-.02.85-.03,1.38-.01.43.09,1.04.59,1.79-.94.11-1.87.23-2.81.34Z"/>
        <path class="cls-11" d="M9.91,8.12c.04-.27.14-.65.41-.98.37-.46.76-.35,1.39-.85.17-.14.57-.46.83-.99.27-.53.14-.76.35-1.19.15-.31.46-.71,1.18-1.02-.32.4-.43.76-.47,1.01-.04.26,0,.35.02,1.08.02.57.03.85-.01,1.04-.12.55-.44.72-.72,1.18-.23.37-.44.94-.38,1.85l-2.6-1.11Z"/>
        <path class="cls-9" d="M11.13,8.18c.17-.21.44-.49.85-.65.55-.21.83.07,1.63-.04.22-.03.72-.11,1.22-.44.5-.33.5-.59.9-.85.29-.19.76-.38,1.53-.3-.48.19-.75.44-.91.64-.17.21-.18.3-.52.94-.27.5-.4.75-.53.89-.38.42-.74.41-1.21.66-.38.2-.86.59-1.25,1.41-.57-.75-1.13-1.51-1.7-2.26Z"/>
        <path class="cls-10" d="M14.31,10.49c.22,0,.41.04.57.06.13.02.24.04.35.04.09,0,.18-.01.28-.05.09-.03.26-.13.52-.29-.02,0-.04,0-.07,0-.06,0-.13,0-.19,0-.64,0-1.14-.2-1.32-.27-.43-.17-.69-.37-.88-.51-.2-.15-.28-.21-.44-.23-.06,0-.12-.01-.17-.01.26-.29.55-.53.87-.7.2-.11.37-.17.52-.23.24-.09.38-.14.54-.32.06-.07.16-.25.31-.51-.02.01-.04.02-.05.04-.61.4-1.22.49-1.44.53-.16.02-.32.04-.48.04-.22,0-.4-.02-.54-.04-.1-.01-.19-.02-.27-.02s-.15.01-.23.04c-.05.02-.11.05-.16.07.08-.38.21-.73.4-1.04.12-.19.23-.33.34-.46.16-.2.26-.31.31-.54.02-.09.02-.29,0-.6,0,.02-.02.04-.03.06-.29.59-.7.95-.99,1.18-.36.28-.66.41-.89.51-.23.1-.32.14-.42.26-.04.04-.07.09-.1.14-.13-.37-.18-.74-.17-1.1,0-.22.04-.41.06-.57.04-.25.07-.4,0-.63-.03-.09-.13-.26-.29-.52,0,.02,0,.04,0,.07.04.73-.18,1.3-.26,1.51-.17.43-.37.69-.51.88-.15.2-.21.28-.23.44,0,.06-.01.12-.01.17-.29-.26-.53-.55-.7-.87-.11-.2-.17-.37-.23-.52-.09-.24-.14-.38-.32-.54-.07-.06-.25-.16-.51-.31.01.02.02.04.04.05.36.55.48,1.09.53,1.44.07.45.03.78,0,1.02-.03.25-.04.34.02.49.02.05.05.11.07.16-.38-.08-.73-.21-1.04-.4-.19-.12-.33-.23-.46-.34-.2-.16-.31-.26-.54-.31-.04,0-.13-.01-.26-.01-.09,0-.2,0-.34,0,.02,0,.04.02.06.03.59.29.95.7,1.18.99.28.36.41.66.51.88.1.23.14.32.26.42.04.04.09.07.14.1-.34.12-.68.17-1.01.17-.03,0-.06,0-.09,0-.22,0-.41-.04-.57-.06-.13-.02-.24-.04-.35-.04-.09,0-.18.01-.28.05-.09.03-.26.13-.52.29.02,0,.04,0,.07,0,.06,0,.13,0,.19,0,.64,0,1.14.2,1.32.27.43.17.69.37.88.51.2.15.28.21.44.23.06,0,.12.01.17.01-.26.29-.55.53-.87.7-.2.11-.37.17-.52.23-.24.09-.38.14-.54.32-.06.07-.16.24-.31.51.02-.01.04-.02.05-.04.61-.4,1.22-.49,1.44-.53.16-.02.32-.04.48-.04.22,0,.4.02.54.04.1.01.19.02.27.02s.15-.01.23-.04c.05-.02.11-.05.16-.07-.08.38-.21.73-.4,1.04-.12.19-.23.33-.34.46-.16.2-.26.31-.31.54-.02.09-.02.29,0,.6,0-.02.02-.04.03-.06.29-.59.7-.95.99-1.18.36-.28.66-.41.88-.51.23-.1.32-.14.42-.26.04-.04.07-.09.1-.14.13.37.18.74.17,1.1,0,.22-.04.41-.06.57-.04.25-.07.4,0,.63.03.09.13.26.29.52,0-.02,0-.04,0-.07-.04-.66.13-1.18.26-1.51.17-.43.37-.69.51-.88.15-.2.21-.28.23-.44,0-.06.01-.12.01-.17.29.26.53.55.7.87.11.2.17.37.23.52.09.24.14.38.32.54.07.06.25.16.51.31-.01-.02-.02-.04-.04-.05-.36-.55-.48-1.09-.53-1.44-.07-.45-.03-.78,0-1.02.03-.25.04-.34-.02-.49-.02-.05-.05-.11-.07-.16.38.08.73.21,1.04.4.19.12.33.23.46.34.2.16.31.26.54.31.05,0,.13.01.26.01.09,0,.2,0,.34,0-.02,0-.04-.02-.06-.03-.59-.29-.95-.7-1.18-.99-.28-.36-.41-.66-.51-.89-.1-.23-.14-.32-.26-.42-.04-.04-.09-.07-.14-.1.34-.12.68-.17,1.01-.17.03,0,.06,0,.09,0ZM12.45,11.98s.01,0,.02,0l-1.07.8s0,0,.02.01l-1.33.16s0,.01,0,.02l-1.23-.52s0,.01,0,.02l-.8-1.07s0,0-.01.02l-.16-1.33s-.01,0-.02,0l.52-1.23s-.01,0-.02,0l1.07-.8s0,0-.02-.01l1.33-.16s0-.01,0-.02l1.23.52s0-.01,0-.02l.8,1.07s0,0,.01-.02l.16,1.33s.01,0,.02,0l-.52,1.23Z"/>
      </g>
      <path class="cls-12" d="M12,12.54c-1.17.87-2.82.63-3.69-.54-.87-1.17-.63-2.82.54-3.69.13-.09.26-.18.4-.24,1.12-.56,2.52-.26,3.3.78.87,1.17.63,2.82-.54,3.69Z"/>
      <path class="cls-15" d="M12,12.54c-1.17.87-2.82.63-3.69-.54.9.46,1.94.39,2.61-.17.62-.52.7-1.25.71-1.35.1-.99-.59-1.67-.73-1.8-.65-.6-1.44-.62-1.66-.61,1.12-.56,2.52-.26,3.3.78.87,1.17.63,2.82-.54,3.69Z"/>
    </g>
  </g>
</svg>