<?xml version="1.0" encoding="UTF-8"?>
<svg xmlns="http://www.w3.org/2000/svg" xmlns:xlink="http://www.w3.org/1999/xlink" viewBox="0 0 17.63 16.38">
  <defs>
    <style>
      .cls-1 {
        opacity: .3;
      }

      .cls-1, .cls-2 {
        mix-blend-mode: multiply;
      }

      .cls-3 {
        fill: url(#radial-gradient);
      }

      .cls-4 {
        fill: url(#linear-gradient);
      }

      .cls-2 {
        opacity: .4;
      }

      .cls-2, .cls-5 {
        fill: #666;
      }

      .cls-6 {
        isolation: isolate;
      }

      .cls-7 {
        fill: #383838;
      }

      .cls-8 {
        fill: #d4a65f;
      }
    </style>
    <radialGradient id="radial-gradient" cx="10.48" cy="1.39" fx="10.48" fy="1.39" r="12.65" gradientUnits="userSpaceOnUse">
      <stop offset="0" stop-color="#f6de9c"/>
      <stop offset="1" stop-color="#bd9960"/>
    </radialGradient>
    <linearGradient id="linear-gradient" x1="3.04" y1="4.6" x2="12.08" y2="11.2" gradientUnits="userSpaceOnUse">
      <stop offset="0" stop-color="#dec171"/>
      <stop offset="1" stop-color="#a37b3c"/>
    </linearGradient>
  </defs>
  <g class="cls-6">
    <g id="Layer_2" data-name="Layer 2">
      <g id="Layer_1-2" data-name="Layer 1">
        <g>
          <path class="cls-7" d="M9.44,16.38c-1.9,0-3.76-.67-5.22-1.89C.74,11.61.26,6.44,3.14,2.96c1.56-1.88,3.86-2.96,6.31-2.96,1.9,0,3.76.67,5.23,1.89,3.48,2.88,3.96,8.06,1.08,11.53-1.56,1.88-3.86,2.96-6.31,2.96h0Z"/>
          <g>
            <path class="cls-5" d="M5.07,10.45c.4.08.74.15,1.21-.12.47-.27.59-.6.73-.98.15-.41.31-.88.94-1.23.63-.36,1.12-.26,1.54-.17.39.08.74.15,1.21-.11.47-.27.59-.59.72-.97.15-.41.31-.88.94-1.23.63-.36,1.12-.25,1.54-.17.02,0,.04,0,.06.01-.03-.05-.05-.1-.08-.15-.07-.12-.15-.24-.24-.35-.18-.26-.39-.5-.61-.71-.12-.12-.24-.23-.37-.34-.12.03-.24.07-.37.15-.47.27-.59.59-.72.97-.15.41-.31.88-.94,1.23-.63.36-1.12.25-1.54.17-.39-.08-.74-.15-1.21.11-.47.27-.59.6-.73.98-.15.41-.31.88-.94,1.23-.63.36-1.12.26-1.54.17-.33-.07-.62-.12-.97,0,.05.37.13.73.25,1.07.05.13.1.25.15.37.37-.07.68-.01.97.05Z"/>
            <path class="cls-5" d="M7.84,12.93c.47-.27.59-.6.73-.98.15-.41.31-.88.94-1.23.63-.35,1.12-.25,1.54-.17.39.08.74.15,1.21-.11.47-.27.59-.59.72-.97.15-.41.31-.88.94-1.23.28-.16.53-.22.76-.24,0-.27-.04-.54-.09-.8-.26-.03-.53-.01-.86.17-.47.27-.59.59-.72.97-.15.41-.31.88-.94,1.23-.63.35-1.12.25-1.54.17-.39-.08-.74-.15-1.21.11-.47.27-.59.6-.73.98-.15.41-.31.88-.94,1.23-.63.36-1.12.26-1.54.17-.26-.05-.49-.1-.76-.05.1.09.19.19.29.27.25.21.53.4.82.56.06.01.12.02.17.04.4.08.74.15,1.21-.11Z"/>
            <path class="cls-3" d="M14.7,8.19c0,.09,0,.18-.01.28-.01.29-.04.58-.1.86-.05.21-.11.42-.17.62t0,0c-.73,2.17-2.78,3.74-5.2,3.76h-.04c-.16,0-.33,0-.49-.02-.34-.03-.68-.09-1-.18-.43-.12-.84-.29-1.22-.51-.29-.16-.56-.35-.82-.56-.1-.09-.2-.18-.29-.27-.13-.13-.26-.26-.38-.39-.07-.08-.14-.16-.21-.25-.13-.17-.26-.36-.37-.55-.02-.04-.04-.09-.07-.13-.08-.15-.15-.3-.22-.45-.05-.13-.11-.25-.15-.38-.12-.34-.2-.7-.25-1.07-.02-.16-.04-.33-.05-.5,0-.09,0-.17,0-.26,0-.17,0-.34.02-.5.01-.17.04-.34.07-.5.07-.37.17-.72.3-1.05.82-2.03,2.8-3.47,5.13-3.47.21,0,.41.01.61.03.21.02.42.06.62.11.66.15,1.28.41,1.82.78.16.11.31.22.46.34.13.11.25.22.37.34.22.22.43.46.61.71.09.11.16.23.24.35.03.05.05.1.08.15.1.17.19.35.26.53.08.18.15.38.22.57,0,.04.02.08.03.11.04.16.08.33.11.49.05.26.08.53.09.8,0,.07,0,.14,0,.21Z"/>
            <g class="cls-1">
              <path class="cls-8" d="M5.34,6.22c.14-.38.25-.71.73-.98.47-.27.81-.2,1.21-.11.43.09.91.19,1.54-.17.63-.35.8-.82.94-1.23.13-.35.24-.66.64-.92-.2-.05-.41-.08-.62-.11-.26.28-.37.59-.47.87-.13.38-.25.71-.72.97-.47.27-.82.2-1.21.11-.43-.09-.91-.19-1.54.17-.63.36-.8.82-.94,1.23-.14.38-.25.71-.73.98-.15.09-.29.13-.42.16-.03.16-.05.33-.07.5.22-.02.46-.09.73-.24.63-.36.8-.82.94-1.23Z"/>
              <path class="cls-8" d="M4.68,8.94c.43.09.91.19,1.54-.17.63-.36.8-.82.94-1.23.14-.38.25-.71.73-.98.47-.27.82-.2,1.21-.11.43.09.91.19,1.54-.17.63-.35.8-.82.94-1.23.13-.38.25-.71.72-.97.13-.07.26-.12.37-.15-.15-.12-.3-.24-.46-.34-.05.02-.1.04-.15.07-.63.35-.8.82-.94,1.23-.13.38-.25.71-.73.97-.47.27-.82.2-1.21.11-.43-.09-.91-.19-1.54.17-.63.36-.8.82-.94,1.23-.14.38-.25.71-.73.98-.48.27-.82.2-1.21.11-.33-.07-.69-.14-1.12-.01,0,.17.02.33.05.49.36-.13.65-.07.97,0Z"/>
              <path class="cls-8" d="M4.98,10.92c.43.09.91.19,1.54-.17s.8-.82.94-1.23c.14-.38.25-.71.73-.98.47-.27.82-.2,1.21-.11.43.09.91.19,1.54-.17.63-.35.8-.82.94-1.23.13-.38.25-.71.72-.97.47-.27.81-.2,1.21-.11.14.03.28.06.43.07-.08-.18-.17-.36-.27-.53-.02,0-.04,0-.06-.01-.43-.09-.91-.19-1.54.17-.63.35-.8.82-.94,1.23-.13.38-.25.71-.72.97-.47.27-.82.2-1.21.11-.43-.09-.91-.19-1.54.17-.63.36-.8.82-.94,1.23-.14.38-.25.71-.73.98-.47.27-.82.2-1.21.12-.29-.06-.6-.12-.97-.05.07.16.14.31.22.45.22-.02.42.02.65.07Z"/>
              <path class="cls-8" d="M6.11,12.22c.43.09.91.19,1.54-.17.63-.36.8-.82.94-1.23.14-.38.25-.71.73-.98.47-.27.82-.2,1.21-.11.43.09.91.19,1.54-.17.63-.35.8-.82.94-1.23.13-.38.25-.71.72-.97.33-.19.6-.21.86-.17-.03-.17-.07-.33-.11-.49-.29-.01-.61.04-.99.25-.63.35-.8.82-.94,1.23-.13.38-.25.71-.72.97-.47.27-.82.2-1.21.11-.43-.09-.91-.19-1.54.17-.63.36-.8.82-.94,1.23-.14.38-.25.71-.73.98-.47.27-.82.2-1.21.11-.35-.07-.75-.15-1.23.02.12.14.24.27.37.39.26-.05.5,0,.76.05Z"/>
              <path class="cls-8" d="M9.02,12.11c.14-.38.25-.71.73-.98s.82-.2,1.21-.11c.43.09.91.19,1.54-.17.63-.35.8-.82.94-1.23.13-.38.25-.71.72-.97.19-.11.36-.16.51-.18,0-.09.01-.18.01-.28,0-.07,0-.14,0-.21-.23.02-.48.08-.76.24-.63.35-.8.82-.94,1.23-.13.38-.25.71-.72.97-.47.27-.81.2-1.21.11-.43-.09-.91-.19-1.54.17-.63.36-.8.82-.94,1.23-.14.38-.25.71-.73.98-.47.27-.82.2-1.21.11-.06-.01-.12-.02-.17-.04.38.22.79.39,1.22.51.13-.04.26-.09.4-.17.63-.36.8-.82.94-1.23Z"/>
              <path class="cls-8" d="M14.27,9.47c-.63.35-.8.82-.94,1.23-.13.38-.25.71-.72.97-.47.27-.81.2-1.21.11-.43-.09-.91-.19-1.54.17-.63.36-.8.82-.94,1.23-.06.18-.13.35-.22.51.16.01.33.02.49.02.01,0,.03,0,.04,0,.06-.12.1-.25.14-.37.14-.38.25-.71.73-.98s.82-.2,1.21-.11c.43.09.91.19,1.54-.17s.8-.82.94-1.23c.12-.35.24-.66.63-.91.07-.2.13-.41.17-.62-.1.04-.2.08-.31.14Z"/>
            </g>
            <path class="cls-2" d="M14.41,9.96c-.73,2.17-2.78,3.74-5.2,3.76h-.04c-.16,0-.33,0-.49-.02-.34-.03-.68-.09-1-.18-.43-.12-.84-.29-1.22-.51-.29-.16-.56-.35-.82-.56-.1-.09-.2-.18-.29-.27-.13-.13-.26-.26-.38-.39-.07-.08-.14-.16-.21-.25-.13-.17-.26-.36-.37-.55-.02-.04-.04-.09-.07-.13-.08-.15-.15-.3-.22-.45-.05-.13-.11-.25-.15-.38-.12-.34-.2-.7-.25-1.07-.02-.16-.04-.33-.05-.5,0-.09,0-.17,0-.26,0-.17,0-.34.02-.5.01-.17.04-.34.07-.5.07-.37.17-.72.3-1.05.41,1.49,1.16,2.37,1.62,2.82,2.01,1.95,5.41,2.31,8.74,1Z"/>
            <path class="cls-4" d="M16.41,4.9c-.63.59-1.28,1.16-1.95,1.69-1.58,1.27-3.27,2.39-4.95,3.51-1.28.81-2.56,1.6-3.88,2.34-.82.47-1.66.91-2.52,1.33-.79.33-1.57.82-2.48.79-.1-.01-.35-.06-.53-.32-.16-.27-.11-.52-.08-.61.07-.25.21-.42.34-.59.98-1.11,2.18-1.96,3.35-2.85.08-.06.15-.11.23-.17.12.33.26.65.44.95-.82.62-1.6,1.26-2.31,1.95.91-.39,1.81-.88,2.68-1.4,1.37-.81,2.71-1.72,4.02-2.55,1.7-1.18,3.5-2.32,5.12-3.65.39-.32.77-.65,1.14-1.01-.47.2-.92.42-1.37.65-.18-.26-.39-.5-.61-.71.91-.48,1.84-.92,2.82-1.29.81-.31,1.27.1,1.27.1.41.71-.29,1.36-.73,1.82Z"/>
          </g>
        </g>
      </g>
    </g>
  </g>
</svg>